<?xml version="1.0" standalone="no"?>
<!DOCTYPE svg PUBLIC "-//W3C//DTD SVG 20010904//EN"
 "http://www.w3.org/TR/2001/REC-SVG-20010904/DTD/svg10.dtd">
<svg version="1.0" xmlns="http://www.w3.org/2000/svg"
 width="450.000000pt" height="450.000000pt" viewBox="0 0 450.000000 450.000000"
 preserveAspectRatio="xMidYMid meet">

<g transform="translate(0.000000,450.000000) scale(0.100000,-0.100000)"
fill="#000000" stroke="none">
<path d="M1772 3544 l-22 -15 0 -390 0 -389 -390 0 -390 0 -15 -24 c-13 -19
-14 -29 -5 -45 11 -21 17 -21 405 -21 l395 0 0 -405 0 -405 -381 0 c-227 0
-388 -4 -398 -10 -25 -13 -33 -37 -21 -61 10 -18 26 -19 405 -19 l395 0 0
-386 c0 -246 4 -392 10 -405 12 -21 50 -25 68 -7 9 9 12 113 12 405 l0 393
405 0 405 0 0 -386 c0 -246 4 -392 10 -405 12 -22 52 -25 69 -6 7 10 12 136
13 403 l3 389 389 3 c267 1 393 6 403 13 19 17 16 57 -6 69 -13 6 -159 10
-405 10 l-386 0 0 405 0 405 393 0 c292 0 396 3 405 12 18 18 14 56 -7 68 -13
6 -159 10 -405 10 l-386 0 0 395 c0 384 -1 395 -20 405 -23 12 -54 0 -64 -26
-3 -8 -6 -186 -6 -395 l0 -379 -405 0 -405 0 0 395 c0 380 -1 395 -19 405 -25
13 -22 13 -49 -6z m878 -1289 l0 -405 -405 0 -405 0 0 398 c0 219 3 402 7 405
3 4 186 7 405 7 l398 0 0 -405z"/>
<path d="M1047 3452 c-10 -10 -17 -25 -17 -32 0 -7 57 -71 127 -142 l127 -128
-129 -130 c-123 -123 -128 -130 -117 -154 22 -49 49 -34 177 94 66 66 124 120
130 120 6 0 64 -54 130 -120 118 -119 145 -136 173 -108 28 28 11 55 -108 173
-66 66 -120 124 -120 130 0 6 54 64 120 130 128 128 143 155 94 177 -24 11
-31 6 -154 -117 l-130 -129 -128 127 c-71 70 -136 127 -144 127 -8 0 -22 -8
-31 -18z"/>
<path d="M2847 2552 c-10 -10 -17 -25 -17 -32 0 -7 57 -71 127 -142 l127 -128
-129 -130 c-123 -123 -128 -130 -117 -154 22 -49 49 -34 177 94 66 66 124 120
130 120 6 0 64 -54 130 -120 118 -119 145 -136 173 -108 28 28 10 55 -113 178
l-125 125 125 125 c133 133 148 160 99 182 -24 11 -31 6 -154 -117 l-130 -129
-128 127 c-71 70 -136 127 -144 127 -8 0 -22 -8 -31 -18z"/>
<path d="M2177 1660 c-92 -24 -179 -97 -219 -185 -16 -38 -22 -69 -22 -125 0
-124 61 -221 176 -282 63 -33 203 -33 270 0 60 30 120 90 150 150 33 67 33
207 0 270 -70 132 -221 205 -355 172z m128 -91 c24 -6 63 -27 86 -47 159 -136
66 -393 -143 -392 -69 1 -125 27 -170 79 -105 123 -51 308 105 357 53 16 68
17 122 3z"/>
</g>
</svg>
